# xmcd CD database file
#
# Track frame offsets:
#       150
#       9303
#       21753
#       32606
#       43217
#       58122
#       65772
#       79422
#       95111
#       110051
#       119726
#       130240
#       141593
#
# Disc length: 2125 seconds
#
# Revision: 0
# Processed by: cddbd v1.5.2PL0 Copyright (c) Steve Scherf et al.
# Submitted via: jack 3.1.1
#
DISCID=c7084b0d
DTITLE=The Showhawk Duo - Tourist
DYEAR=2011
DGENRE=Misc
TTITLE0=I Fought The Law
TTITLE1=Pinball Wizard
TTITLE2=Miserlou
TTITLE3=Minor Swing
TTITLE4=Lonestar
TTITLE5=Flight of the Bumblebee
TTITLE6=Don't Stop Me Now
TTITLE7=Billie Jean
TTITLE8=Joseph's Tiger
TTITLE9=King of the Swingers
TTITLE10=Djangology
TTITLE11=Englishman in New York
TTITLE12=The Classic
EXTD=
EXTT0=
EXTT1=
EXTT2=
EXTT3=
EXTT4=
EXTT5=
EXTT6=
EXTT7=
EXTT8=
EXTT9=
EXTT10=
EXTT11=
EXTT12=
PLAYORDER=
